<svg width="58" height="58" viewBox="0 0 58 58" fill="none" xmlns="http://www.w3.org/2000/svg">
<path d="M23.3812 33.1083L25.4958 26.2208L19.9375 21.75H26.825L29 14.9833L31.175 21.75H38.0625L32.4437 26.2208L34.5583 33.1083L29 28.8188L23.3812 33.1083ZM14.5 55.5833V36.9146C12.9694 35.2229 11.7812 33.2896 10.9354 31.1146C10.0896 28.9396 9.66666 26.6236 9.66666 24.1667C9.66666 18.7695 11.5396 14.1979 15.2854 10.4521C19.0312 6.70626 23.6028 4.83334 29 4.83334C34.3972 4.83334 38.9687 6.70626 42.7146 10.4521C46.4604 14.1979 48.3333 18.7695 48.3333 24.1667C48.3333 26.6236 47.9104 28.9396 47.0646 31.1146C46.2187 33.2896 45.0305 35.2229 43.5 36.9146V55.5833L29 50.75L14.5 55.5833ZM29 38.6667C33.0278 38.6667 36.4514 37.257 39.2708 34.4375C42.0903 31.6181 43.5 28.1945 43.5 24.1667C43.5 20.1389 42.0903 16.7153 39.2708 13.8958C36.4514 11.0764 33.0278 9.66668 29 9.66668C24.9722 9.66668 21.5486 11.0764 18.7292 13.8958C15.9097 16.7153 14.5 20.1389 14.5 24.1667C14.5 28.1945 15.9097 31.6181 18.7292 34.4375C21.5486 37.257 24.9722 38.6667 29 38.6667ZM19.3333 48.3938L29 45.9167L38.6667 48.3938V40.9021C37.2569 41.7076 35.7364 42.342 34.1052 42.8052C32.4739 43.2684 30.7722 43.5 29 43.5C27.2278 43.5 25.526 43.2684 23.8948 42.8052C22.2635 42.342 20.743 41.7076 19.3333 40.9021V48.3938Z" fill="white"/>
</svg>
