<svg width="58" height="58" viewBox="0 0 58 58" fill="none" xmlns="http://www.w3.org/2000/svg">
<path d="M7.25002 43.5C5.92085 43.5 4.78301 43.0267 3.83648 42.0802C2.88995 41.1337 2.41669 39.9958 2.41669 38.6667C2.41669 37.3375 2.88995 36.1997 3.83648 35.2531C4.78301 34.3066 5.92085 33.8333 7.25002 33.8333H7.8844C8.06565 33.8333 8.25697 33.8736 8.45835 33.9542L19.4542 22.9583C19.3736 22.7569 19.3334 22.5656 19.3334 22.3844V21.75C19.3334 20.4208 19.8066 19.283 20.7531 18.3365C21.6997 17.3899 22.8375 16.9167 24.1667 16.9167C25.4959 16.9167 26.6337 17.3899 27.5802 18.3365C28.5268 19.283 29 20.4208 29 21.75C29 21.8306 28.9597 22.2333 28.8792 22.9583L35.0417 29.1208C35.2431 29.0403 35.4344 29 35.6156 29H36.8844C37.0656 29 37.257 29.0403 37.4584 29.1208L46.0375 20.5417C45.957 20.3403 45.9167 20.149 45.9167 19.9677V19.3333C45.9167 18.0042 46.39 16.8663 47.3365 15.9198C48.283 14.9733 49.4209 14.5 50.75 14.5C52.0792 14.5 53.217 14.9733 54.1636 15.9198C55.1101 16.8663 55.5834 18.0042 55.5834 19.3333C55.5834 20.6625 55.1101 21.8003 54.1636 22.7469C53.217 23.6934 52.0792 24.1667 50.75 24.1667H50.1156C49.9344 24.1667 49.7431 24.1264 49.5417 24.0458L40.9625 32.625C41.0431 32.8264 41.0834 33.0177 41.0834 33.199V33.8333C41.0834 35.1625 40.6101 36.3003 39.6636 37.2469C38.717 38.1934 37.5792 38.6667 36.25 38.6667C34.9209 38.6667 33.783 38.1934 32.8365 37.2469C31.89 36.3003 31.4167 35.1625 31.4167 33.8333V33.199C31.4167 33.0177 31.457 32.8264 31.5375 32.625L25.375 26.4625C25.1736 26.5431 24.9823 26.5833 24.8011 26.5833H24.1667C24.0861 26.5833 23.6834 26.5431 22.9584 26.4625L11.9625 37.4583C12.0431 37.6597 12.0834 37.851 12.0834 38.0323V38.6667C12.0834 39.9958 11.6101 41.1337 10.6636 42.0802C9.71703 43.0267 8.57919 43.5 7.25002 43.5Z" fill="white"/>
</svg>
