<svg width="58" height="58" viewBox="0 0 58 58" fill="none" xmlns="http://www.w3.org/2000/svg">
<path d="M9.66666 50.75C8.33749 50.75 7.19965 50.2767 6.25312 49.3302C5.30659 48.3837 4.83333 47.2458 4.83333 45.9167V19.3333C4.83333 18.0042 5.30659 16.8663 6.25312 15.9198C7.19965 14.9733 8.33749 14.5 9.66666 14.5H19.3333V9.66668C19.3333 8.33751 19.8066 7.19966 20.7531 6.25314C21.6996 5.30661 22.8375 4.83334 24.1667 4.83334H33.8333C35.1625 4.83334 36.3003 5.30661 37.2469 6.25314C38.1934 7.19966 38.6667 8.33751 38.6667 9.66668V14.5H48.3333C49.6625 14.5 50.8003 14.9733 51.7469 15.9198C52.6934 16.8663 53.1667 18.0042 53.1667 19.3333V45.9167C53.1667 47.2458 52.6934 48.3837 51.7469 49.3302C50.8003 50.2767 49.6625 50.75 48.3333 50.75H9.66666ZM9.66666 45.9167H48.3333V19.3333H9.66666V45.9167ZM24.1667 14.5H33.8333V9.66668H24.1667V14.5Z" fill="white"/>
</svg>
